<?xml version="1.0" encoding="utf-8"?>
<!-- Generator: Adobe Illustrator 26.3.1, SVG Export Plug-In . SVG Version: 6.00 Build 0)  -->
<svg version="1.1" id="Layer_1" xmlns="http://www.w3.org/2000/svg" xmlns:xlink="http://www.w3.org/1999/xlink" x="0px" y="0px"
	 viewBox="0 0 310 54" style="enable-background:new 0 0 310 54;" xml:space="preserve">
<style type="text/css">
	.st0{fill:#FF59C1;}
	.st1{fill:#00CC9F;}
	.st2{opacity:0.8;fill:#00B9B8;}
	.st3{fill:#00A59D;}
	.st4{fill:#303030;}
</style>
<g>
	<g>
		<g>
			<path class="st0" d="M26.8,34.3l5.3-3.3c1.1-0.7,1.1-2.3,0-3l-5.3-3.3c-1.2-0.7-1.9-2.1-1.9-3.5v-6.2c0-1.8,0.9-3.4,2.3-4.2
				l-13.3,8.3c-4.1,2.6-4.1,8.6,0,11.1l11.1,6.9C25.1,36,25.8,34.9,26.8,34.3z"/>
			<path class="st0" d="M32.6,10.8l11.3,7c0.2-0.5,0.4-1.1,0.4-1.7V12c0-5.1-5.6-8.3-10-5.6l-7,4.4C28.8,9.8,30.8,9.7,32.6,10.8z"/>
			<path class="st1" d="M55.9,25.2l-12-7.4c-0.3,0.8-0.9,1.4-1.6,1.9L38.4,22c-2,1.2-2,4.1,0,5.3l3.8,2.4c1.2,0.8,2,2.1,2,3.6v4.1
				c0,5.1-5.6,8.3-10,5.6l-9.4-5.8c0,0.2-0.1,0.5-0.1,0.7V44c0,4,4.4,6.4,7.7,4.3l23.3-14.4C59.1,31.8,59.1,27.2,55.9,25.2z"/>
			<path class="st2" d="M27.1,10.8l0.1-0.1C27.2,10.8,27.2,10.8,27.1,10.8z"/>
		</g>
		<path class="st3" d="M38.4,22l3.8-2.4c0.7-0.5,1.3-1.1,1.6-1.9l-11.3-7c-1.8-1.1-3.8-1-5.3,0l-0.1,0.1c-1.4,0.9-2.3,2.4-2.3,4.2
			v6.2c0,1.4,0.7,2.7,1.9,3.5l5.3,3.3c1.1,0.7,1.1,2.3,0,3l-5.3,3.3c-1,0.6-1.7,1.6-1.9,2.8l9.4,5.8c4.4,2.7,10-0.4,10-5.6v-4.1
			c0-1.5-0.8-2.8-2-3.6l-3.8-2.4C36.5,26.1,36.5,23.2,38.4,22z"/>
	</g>
	<g>
		<path class="st4" d="M77.5,39c-0.9,0.4-1.9,0.7-2.8,0.7c-1.3,0-2.3-0.4-3-1.3c-0.7-0.9-1-2.1-1-3.8V21.1h-2.5v-1.7h2.5V14h2.2v5.4
			h4.3v1.7h-4.3v13.6c0,1,0.2,1.8,0.6,2.3c0.4,0.5,1,0.8,1.7,0.8c0.6,0,1.3-0.1,1.9-0.4L77.5,39z"/>
		<path class="st4" d="M92.1,39.2V25.1c0-2.9-1.2-4.4-3.6-4.4c-0.8,0-1.6,0.2-2.3,0.6c-0.8,0.4-1.4,1-1.9,1.7
			c-0.5,0.7-0.8,1.5-0.8,2.3v14h-2.2V11.7h2.2v10.1c0.7-1,1.5-1.7,2.4-2.3c0.9-0.5,2-0.8,3-0.8c1.7,0,3,0.5,3.9,1.6
			c0.9,1.1,1.4,2.5,1.4,4.4v14.5H92.1z"/>
		<path class="st4" d="M111.7,34c-0.3,1.9-0.9,3.3-2,4.3c-1.1,1-2.5,1.5-4.2,1.5c-2.3,0-4-0.9-5.2-2.6c-1.2-1.8-1.8-4.3-1.8-7.8
			c0-3.4,0.6-6,1.8-7.9c1.2-1.9,2.9-2.8,5.2-2.8c2.1,0,3.7,0.8,4.8,2.5c1.1,1.7,1.6,4.1,1.6,7.4v1.2h-11.2c0,2.6,0.5,4.6,1.3,6
			c0.8,1.4,2,2.1,3.5,2.1c2.3,0,3.7-1.3,4.1-4H111.7z M109.8,28.1c0-2.5-0.4-4.4-1.1-5.7c-0.7-1.3-1.8-1.9-3.3-1.9
			c-2.9,0-4.5,2.5-4.7,7.6H109.8z"/>
		<path class="st4" d="M119.7,30.6c-1.8-0.5-3.2-1.2-4-2.2c-0.8-1-1.3-2.3-1.3-3.9c0-1.8,0.6-3.3,1.9-4.4c1.2-1.1,2.9-1.7,5-1.7
			c2,0,3.5,0.5,4.6,1.4c1.1,0.9,1.8,2.4,2.1,4.4l-4.4,0.5c-0.2-1-0.5-1.7-0.8-2.1c-0.4-0.4-0.9-0.6-1.6-0.6s-1.2,0.2-1.6,0.6
			c-0.4,0.4-0.6,0.9-0.6,1.6c0,0.7,0.2,1.2,0.5,1.6c0.3,0.4,0.9,0.7,1.7,0.9l1.8,0.5c1.9,0.6,3.3,1.3,4.1,2.3c0.8,1,1.2,2.3,1.2,4
			c0,1.9-0.6,3.4-1.9,4.6c-1.3,1.1-3,1.7-5.1,1.7c-2.3,0-4-0.5-5.2-1.6c-1.2-1.1-1.8-2.7-2-5h4.5c0.1,1,0.4,1.8,0.8,2.3
			c0.4,0.5,1.1,0.7,1.9,0.7c0.7,0,1.3-0.2,1.7-0.7c0.4-0.4,0.6-1,0.6-1.8c0-0.7-0.2-1.3-0.5-1.7c-0.3-0.4-0.9-0.8-1.7-1L119.7,30.6z
			"/>
		<path class="st4" d="M138,39.8c-2.7,0-4.7-0.9-6-2.6c-1.3-1.7-1.9-4.4-1.9-8c0-3.5,0.7-6.2,2-8c1.4-1.8,3.4-2.7,6-2.7
			c2.7,0,4.7,0.9,6,2.6c1.3,1.7,1.9,4.4,1.9,8c0,3.5-0.7,6.2-2,8C142.7,38.9,140.7,39.8,138,39.8z M138.1,36c0.7,0,1.3-0.2,1.7-0.7
			c0.4-0.5,0.7-1.2,0.9-2.2c0.2-1,0.3-2.3,0.3-4c0-2.5-0.2-4.2-0.6-5.3c-0.4-1-1.1-1.5-2.2-1.5c-0.7,0-1.3,0.2-1.7,0.7
			c-0.4,0.5-0.7,1.2-0.9,2.2c-0.2,1-0.3,2.3-0.3,4c0,2.5,0.2,4.2,0.6,5.3C136.3,35.5,137.1,36,138.1,36z"/>
		<path class="st4" d="M149.4,39.2V19.1h4.9v2.7c0.5-1,1.2-1.7,1.9-2.3c0.7-0.5,1.5-0.8,2.3-0.8c0.4,0,0.9,0.1,1.4,0.2l-0.6,4.6
			c-0.4-0.1-0.9-0.2-1.5-0.2c-1,0-1.8,0.3-2.4,1c-0.7,0.7-1,1.6-1,2.6v12.2H149.4z"/>
		<path class="st4" d="M168.7,39.8c-2.7,0-4.7-0.9-6-2.6c-1.3-1.7-1.9-4.4-1.9-8c0-3.5,0.7-6.2,2-8c1.4-1.8,3.4-2.7,6-2.7
			c2.7,0,4.7,0.9,6,2.6c1.3,1.7,1.9,4.4,1.9,8c0,3.5-0.7,6.2-2,8C173.3,38.9,171.3,39.8,168.7,39.8z M168.7,36
			c0.7,0,1.3-0.2,1.7-0.7c0.4-0.5,0.7-1.2,0.9-2.2c0.2-1,0.3-2.3,0.3-4c0-2.5-0.2-4.2-0.6-5.3c-0.4-1-1.1-1.5-2.2-1.5
			c-0.7,0-1.3,0.2-1.7,0.7c-0.4,0.5-0.7,1.2-0.9,2.2c-0.2,1-0.3,2.3-0.3,4c0,2.5,0.2,4.2,0.6,5.3C167,35.5,167.7,36,168.7,36z"/>
		<path class="st4" d="M180.1,39.2V19.1h4.9v2.7c0.5-1,1.2-1.7,1.9-2.3c0.7-0.5,1.5-0.8,2.3-0.8c0.4,0,0.9,0.1,1.4,0.2l-0.6,4.6
			c-0.4-0.1-0.9-0.2-1.5-0.2c-1,0-1.8,0.3-2.4,1c-0.7,0.7-1,1.6-1,2.6v12.2H180.1z"/>
		<path class="st4" d="M193,16.1v-4.4h5.2v4.4H193z M193.1,39.2V19.1h5.1v20.1H193.1z"/>
		<path class="st4" d="M212.3,38.9c-1.4,0.5-2.7,0.7-3.9,0.7c-3.5,0-5.3-2-5.3-5.9V23h-2.5v-3.9h2.5v-5.4h5.1v5.4h3.7V23h-3.7v10.6
			c0,0.6,0.1,1.1,0.4,1.5c0.3,0.4,0.7,0.5,1.3,0.5s1.1-0.1,1.7-0.3L212.3,38.9z"/>
		<path class="st4" d="M219.8,38.8l-6.6-19.7h5.3l3.5,14l3-14h5l-6.3,21.5c-0.7,2.4-1.5,4.1-2.4,5c-0.9,1-2.1,1.5-3.7,1.5
			c-1.1,0-2.3-0.2-3.4-0.6l0.8-3.8c0.7,0.2,1.3,0.3,1.9,0.3c0.6,0,1.1-0.2,1.4-0.5c0.4-0.3,0.7-0.9,0.9-1.8L219.8,38.8z"/>
		<path class="st4" d="M236.1,29.6c-3-0.8-4.4-2.5-4.4-5.3c0-1.6,0.5-3,1.6-4c1.1-1,2.5-1.5,4.2-1.5c1.6,0,2.9,0.4,3.9,1.2
			c0.9,0.8,1.6,2.1,1.9,3.8l-2,0.3c-0.3-1.3-0.7-2.2-1.3-2.7c-0.6-0.6-1.4-0.8-2.5-0.8c-1.2,0-2.1,0.3-2.7,0.9c-0.6,0.6-1,1.5-1,2.6
			c0,1,0.2,1.8,0.7,2.3c0.5,0.6,1.3,1,2.5,1.3l1.9,0.5c1.6,0.5,2.8,1.2,3.6,2.1c0.8,0.9,1.1,2.2,1.1,3.7c0,1.7-0.5,3.1-1.6,4.2
			c-1.1,1.1-2.5,1.6-4.4,1.6c-3.7,0-5.8-2-6.3-6h2.1c0.2,1.4,0.6,2.5,1.3,3.2c0.7,0.7,1.7,1,3,1c1.2,0,2.1-0.3,2.8-1
			c0.7-0.7,1-1.6,1-2.9c0-1.1-0.3-2-0.8-2.6c-0.6-0.6-1.5-1.1-2.7-1.4L236.1,29.6z"/>
		<path class="st4" d="M259.1,39.2l-3.6-16.8l-3.8,16.8h-2.3l-4.3-19.8h2.3l3.2,17l3.8-16.9h2.2l3.7,16.9l3.3-17h2.1l-4.3,19.8
			H259.1z"/>
		<path class="st4" d="M278.4,39.2v-2.5c-0.6,1-1.4,1.7-2.3,2.2c-0.9,0.5-1.9,0.8-3,0.8c-1.6,0-2.9-0.5-3.8-1.6
			c-0.9-1-1.4-2.5-1.4-4.3c0-2,0.7-3.6,2.1-4.7c1.4-1.2,3.3-1.8,5.7-2l2.7-0.2v-1c0-1.9-0.3-3.3-0.9-4.2c-0.6-0.9-1.6-1.3-3-1.3
			c-1.2,0-2.1,0.3-2.7,0.8c-0.6,0.5-1.1,1.4-1.3,2.7l-1.9-0.3c0.3-1.7,0.9-2.9,1.9-3.8c1-0.8,2.4-1.2,4.2-1.2c2,0,3.5,0.6,4.4,1.8
			c0.9,1.2,1.4,3,1.4,5.5v13.1H278.4z M278.3,28.6l-2.5,0.2c-1.9,0.1-3.3,0.6-4.3,1.4c-1,0.8-1.5,2-1.5,3.5c0,1.3,0.3,2.3,0.9,3
			c0.6,0.7,1.5,1.1,2.6,1.1c1.3,0,2.5-0.5,3.4-1.5c0.9-1,1.4-2.2,1.4-3.7V28.6z"/>
		<path class="st4" d="M285.8,46.7V19.4h2.1v2.5c0.6-1,1.3-1.8,2.2-2.3c0.9-0.5,1.9-0.8,2.9-0.8c2.1,0,3.7,0.9,4.9,2.7
			c1.1,1.8,1.7,4.4,1.7,7.7c0,3.4-0.6,6-1.8,7.8c-1.2,1.9-2.8,2.8-4.9,2.8c-1,0-2-0.3-2.8-0.8c-0.9-0.5-1.6-1.2-2.2-2.2v9.8H285.8z
			 M287.8,30.9c0,2.2,0.4,3.9,1.3,5.1c0.8,1.3,2,1.9,3.4,1.9c3.2,0,4.8-2.9,4.8-8.7c0-5.7-1.6-8.6-4.8-8.6c-1.4,0-2.5,0.6-3.4,1.9
			c-0.8,1.3-1.3,3-1.3,5.1V30.9z"/>
	</g>
</g>
</svg>
